<mxfile host="app.diagrams.net" modified="2024-02-22T01:54:58.157Z" agent="Mozilla/5.0 (Macintosh; Intel Mac OS X 10_15_7) AppleWebKit/537.36 (KHTML, like Gecko) Chrome/121.0.0.0 Safari/537.36" etag="9HZ0toUMEtq2bvUfPtDV" version="23.1.5" type="device">
  <diagram id="C5RBs43oDa-KdzZeNtuy" name="Page-1">
    <mxGraphModel dx="1062" dy="1121" grid="1" gridSize="10" guides="1" tooltips="1" connect="1" arrows="1" fold="1" page="1" pageScale="1" pageWidth="827" pageHeight="1169" math="0" shadow="0">
      <root>
        <mxCell id="WIyWlLk6GJQsqaUBKTNV-0" />
        <mxCell id="WIyWlLk6GJQsqaUBKTNV-1" parent="WIyWlLk6GJQsqaUBKTNV-0" />
        <mxCell id="O7BcQqgrIBvrcE47ppgs-29" style="edgeStyle=orthogonalEdgeStyle;rounded=0;orthogonalLoop=1;jettySize=auto;html=1;entryX=0.5;entryY=0;entryDx=0;entryDy=0;" parent="WIyWlLk6GJQsqaUBKTNV-1" source="O7BcQqgrIBvrcE47ppgs-0" target="O7BcQqgrIBvrcE47ppgs-2" edge="1">
          <mxGeometry relative="1" as="geometry" />
        </mxCell>
        <mxCell id="O7BcQqgrIBvrcE47ppgs-0" value="시작" style="ellipse;whiteSpace=wrap;html=1;" parent="WIyWlLk6GJQsqaUBKTNV-1" vertex="1">
          <mxGeometry x="260" y="50" width="120" height="60" as="geometry" />
        </mxCell>
        <mxCell id="O7BcQqgrIBvrcE47ppgs-7" value="" style="edgeStyle=orthogonalEdgeStyle;rounded=0;orthogonalLoop=1;jettySize=auto;html=1;" parent="WIyWlLk6GJQsqaUBKTNV-1" source="O7BcQqgrIBvrcE47ppgs-2" target="O7BcQqgrIBvrcE47ppgs-6" edge="1">
          <mxGeometry relative="1" as="geometry" />
        </mxCell>
        <mxCell id="O7BcQqgrIBvrcE47ppgs-2" value="lottoNum : []&lt;br&gt;randomNum :&amp;nbsp;&lt;br&gt;myLottoNumbers : [2,3,8,21,38,44]" style="rounded=0;whiteSpace=wrap;html=1;" parent="WIyWlLk6GJQsqaUBKTNV-1" vertex="1">
          <mxGeometry x="220" y="130" width="200" height="60" as="geometry" />
        </mxCell>
        <mxCell id="bC5xw026WsPhHULnHDt2-0" style="edgeStyle=orthogonalEdgeStyle;rounded=0;orthogonalLoop=1;jettySize=auto;html=1;" edge="1" parent="WIyWlLk6GJQsqaUBKTNV-1" source="O7BcQqgrIBvrcE47ppgs-3" target="cc6fdQzZTqaJooS85zYE-2">
          <mxGeometry relative="1" as="geometry" />
        </mxCell>
        <mxCell id="O7BcQqgrIBvrcE47ppgs-3" value="&quot;로또 번호 [ lottoNum 오름차순으로 정렬한 값 ] &quot; 출력" style="rounded=0;whiteSpace=wrap;html=1;" parent="WIyWlLk6GJQsqaUBKTNV-1" vertex="1">
          <mxGeometry x="150" y="685" width="340" height="60" as="geometry" />
        </mxCell>
        <mxCell id="O7BcQqgrIBvrcE47ppgs-4" value="끝" style="ellipse;whiteSpace=wrap;html=1;" parent="WIyWlLk6GJQsqaUBKTNV-1" vertex="1">
          <mxGeometry x="260" y="1135" width="120" height="60" as="geometry" />
        </mxCell>
        <mxCell id="O7BcQqgrIBvrcE47ppgs-9" value="" style="edgeStyle=orthogonalEdgeStyle;rounded=0;orthogonalLoop=1;jettySize=auto;html=1;" parent="WIyWlLk6GJQsqaUBKTNV-1" source="O7BcQqgrIBvrcE47ppgs-6" target="O7BcQqgrIBvrcE47ppgs-8" edge="1">
          <mxGeometry relative="1" as="geometry" />
        </mxCell>
        <mxCell id="O7BcQqgrIBvrcE47ppgs-6" value="1...45 랜덤 숫자 생성" style="whiteSpace=wrap;html=1;rounded=0;" parent="WIyWlLk6GJQsqaUBKTNV-1" vertex="1">
          <mxGeometry x="260" y="210" width="120" height="60" as="geometry" />
        </mxCell>
        <mxCell id="O7BcQqgrIBvrcE47ppgs-14" value="" style="edgeStyle=orthogonalEdgeStyle;rounded=0;orthogonalLoop=1;jettySize=auto;html=1;" parent="WIyWlLk6GJQsqaUBKTNV-1" source="O7BcQqgrIBvrcE47ppgs-8" target="O7BcQqgrIBvrcE47ppgs-13" edge="1">
          <mxGeometry relative="1" as="geometry" />
        </mxCell>
        <mxCell id="O7BcQqgrIBvrcE47ppgs-8" value="radomNum에 할당" style="whiteSpace=wrap;html=1;rounded=0;" parent="WIyWlLk6GJQsqaUBKTNV-1" vertex="1">
          <mxGeometry x="260" y="290" width="120" height="60" as="geometry" />
        </mxCell>
        <mxCell id="O7BcQqgrIBvrcE47ppgs-15" style="edgeStyle=orthogonalEdgeStyle;rounded=0;orthogonalLoop=1;jettySize=auto;html=1;entryX=0;entryY=0.5;entryDx=0;entryDy=0;" parent="WIyWlLk6GJQsqaUBKTNV-1" source="O7BcQqgrIBvrcE47ppgs-13" target="O7BcQqgrIBvrcE47ppgs-6" edge="1">
          <mxGeometry relative="1" as="geometry">
            <Array as="points">
              <mxPoint x="160" y="420" />
              <mxPoint x="160" y="240" />
            </Array>
          </mxGeometry>
        </mxCell>
        <mxCell id="O7BcQqgrIBvrcE47ppgs-21" value="" style="edgeStyle=orthogonalEdgeStyle;rounded=0;orthogonalLoop=1;jettySize=auto;html=1;" parent="WIyWlLk6GJQsqaUBKTNV-1" source="O7BcQqgrIBvrcE47ppgs-13" target="O7BcQqgrIBvrcE47ppgs-20" edge="1">
          <mxGeometry relative="1" as="geometry" />
        </mxCell>
        <mxCell id="O7BcQqgrIBvrcE47ppgs-13" value="lottoNum에 randomNum과 &lt;br&gt;동일한 값이 있는가?" style="rhombus;whiteSpace=wrap;html=1;rounded=0;" parent="WIyWlLk6GJQsqaUBKTNV-1" vertex="1">
          <mxGeometry x="195" y="380" width="250" height="80" as="geometry" />
        </mxCell>
        <mxCell id="O7BcQqgrIBvrcE47ppgs-16" value="YES" style="text;html=1;align=center;verticalAlign=middle;whiteSpace=wrap;rounded=0;" parent="WIyWlLk6GJQsqaUBKTNV-1" vertex="1">
          <mxGeometry x="110" y="310" width="60" height="30" as="geometry" />
        </mxCell>
        <mxCell id="O7BcQqgrIBvrcE47ppgs-23" value="" style="edgeStyle=orthogonalEdgeStyle;rounded=0;orthogonalLoop=1;jettySize=auto;html=1;" parent="WIyWlLk6GJQsqaUBKTNV-1" source="O7BcQqgrIBvrcE47ppgs-20" target="O7BcQqgrIBvrcE47ppgs-22" edge="1">
          <mxGeometry relative="1" as="geometry" />
        </mxCell>
        <mxCell id="O7BcQqgrIBvrcE47ppgs-20" value="&lt;span style=&quot;color: rgb(0, 0, 0); font-family: Helvetica; font-size: 12px; font-style: normal; font-variant-ligatures: normal; font-variant-caps: normal; font-weight: 400; letter-spacing: normal; orphans: 2; text-align: center; text-indent: 0px; text-transform: none; widows: 2; word-spacing: 0px; -webkit-text-stroke-width: 0px; background-color: rgb(251, 251, 251); text-decoration-thickness: initial; text-decoration-style: initial; text-decoration-color: initial; float: none; display: inline !important;&quot;&gt;lottoNum에 randomNum 값 추가&lt;/span&gt;" style="whiteSpace=wrap;html=1;rounded=0;" parent="WIyWlLk6GJQsqaUBKTNV-1" vertex="1">
          <mxGeometry x="260" y="490" width="120" height="60" as="geometry" />
        </mxCell>
        <mxCell id="O7BcQqgrIBvrcE47ppgs-24" style="edgeStyle=orthogonalEdgeStyle;rounded=0;orthogonalLoop=1;jettySize=auto;html=1;entryX=0.5;entryY=0;entryDx=0;entryDy=0;" parent="WIyWlLk6GJQsqaUBKTNV-1" source="O7BcQqgrIBvrcE47ppgs-22" target="O7BcQqgrIBvrcE47ppgs-3" edge="1">
          <mxGeometry relative="1" as="geometry" />
        </mxCell>
        <mxCell id="O7BcQqgrIBvrcE47ppgs-22" value="lottoNum의 length가 6인가?" style="rhombus;whiteSpace=wrap;html=1;rounded=0;" parent="WIyWlLk6GJQsqaUBKTNV-1" vertex="1">
          <mxGeometry x="195" y="575" width="250" height="80" as="geometry" />
        </mxCell>
        <mxCell id="O7BcQqgrIBvrcE47ppgs-26" value="YES" style="text;html=1;align=center;verticalAlign=middle;whiteSpace=wrap;rounded=0;" parent="WIyWlLk6GJQsqaUBKTNV-1" vertex="1">
          <mxGeometry x="320" y="655" width="60" height="30" as="geometry" />
        </mxCell>
        <mxCell id="O7BcQqgrIBvrcE47ppgs-27" style="edgeStyle=orthogonalEdgeStyle;rounded=0;orthogonalLoop=1;jettySize=auto;html=1;entryX=1;entryY=0.5;entryDx=0;entryDy=0;" parent="WIyWlLk6GJQsqaUBKTNV-1" target="O7BcQqgrIBvrcE47ppgs-6" edge="1">
          <mxGeometry relative="1" as="geometry">
            <mxPoint x="444.04" y="615" as="sourcePoint" />
            <mxPoint x="420" y="220" as="targetPoint" />
            <Array as="points">
              <mxPoint x="499" y="615" />
              <mxPoint x="499" y="240" />
            </Array>
          </mxGeometry>
        </mxCell>
        <mxCell id="O7BcQqgrIBvrcE47ppgs-28" value="NO" style="text;html=1;align=center;verticalAlign=middle;whiteSpace=wrap;rounded=0;" parent="WIyWlLk6GJQsqaUBKTNV-1" vertex="1">
          <mxGeometry x="490" y="440" width="60" height="30" as="geometry" />
        </mxCell>
        <mxCell id="O7BcQqgrIBvrcE47ppgs-30" value="NO" style="text;html=1;align=center;verticalAlign=middle;whiteSpace=wrap;rounded=0;" parent="WIyWlLk6GJQsqaUBKTNV-1" vertex="1">
          <mxGeometry x="310" y="460" width="60" height="30" as="geometry" />
        </mxCell>
        <mxCell id="cc6fdQzZTqaJooS85zYE-5" value="" style="edgeStyle=orthogonalEdgeStyle;rounded=0;orthogonalLoop=1;jettySize=auto;html=1;" parent="WIyWlLk6GJQsqaUBKTNV-1" source="cc6fdQzZTqaJooS85zYE-2" target="cc6fdQzZTqaJooS85zYE-4" edge="1">
          <mxGeometry relative="1" as="geometry" />
        </mxCell>
        <mxCell id="cc6fdQzZTqaJooS85zYE-2" value="overLapNum : lottonMun과 myNum의 중복 값" style="whiteSpace=wrap;html=1;rounded=0;" parent="WIyWlLk6GJQsqaUBKTNV-1" vertex="1">
          <mxGeometry x="159.5" y="770" width="321" height="60" as="geometry" />
        </mxCell>
        <mxCell id="cc6fdQzZTqaJooS85zYE-10" value="" style="edgeStyle=orthogonalEdgeStyle;rounded=0;orthogonalLoop=1;jettySize=auto;html=1;" parent="WIyWlLk6GJQsqaUBKTNV-1" source="cc6fdQzZTqaJooS85zYE-4" target="cc6fdQzZTqaJooS85zYE-9" edge="1">
          <mxGeometry relative="1" as="geometry" />
        </mxCell>
        <mxCell id="cc6fdQzZTqaJooS85zYE-12" value="" style="edgeStyle=orthogonalEdgeStyle;rounded=0;orthogonalLoop=1;jettySize=auto;html=1;" parent="WIyWlLk6GJQsqaUBKTNV-1" source="cc6fdQzZTqaJooS85zYE-4" target="cc6fdQzZTqaJooS85zYE-11" edge="1">
          <mxGeometry relative="1" as="geometry" />
        </mxCell>
        <mxCell id="cc6fdQzZTqaJooS85zYE-4" value="overLapNum의 멤버 개수가 0이 아닌가?" style="rhombus;whiteSpace=wrap;html=1;rounded=0;" parent="WIyWlLk6GJQsqaUBKTNV-1" vertex="1">
          <mxGeometry x="170" y="855" width="300" height="80" as="geometry" />
        </mxCell>
        <mxCell id="cc6fdQzZTqaJooS85zYE-14" style="edgeStyle=orthogonalEdgeStyle;rounded=0;orthogonalLoop=1;jettySize=auto;html=1;" parent="WIyWlLk6GJQsqaUBKTNV-1" source="cc6fdQzZTqaJooS85zYE-9" target="O7BcQqgrIBvrcE47ppgs-4" edge="1">
          <mxGeometry relative="1" as="geometry" />
        </mxCell>
        <mxCell id="cc6fdQzZTqaJooS85zYE-9" value="&quot;축하합니다! 겹치는 번호는 &lt;br&gt;[ overLapNum을 오름차순으로 정렬한 값 ]&amp;nbsp;입니다!&quot; 출력" style="rounded=0;whiteSpace=wrap;html=1;" parent="WIyWlLk6GJQsqaUBKTNV-1" vertex="1">
          <mxGeometry x="60" y="1005" width="290" height="60" as="geometry" />
        </mxCell>
        <mxCell id="cc6fdQzZTqaJooS85zYE-15" style="edgeStyle=orthogonalEdgeStyle;rounded=0;orthogonalLoop=1;jettySize=auto;html=1;entryX=0.5;entryY=0;entryDx=0;entryDy=0;" parent="WIyWlLk6GJQsqaUBKTNV-1" source="cc6fdQzZTqaJooS85zYE-11" target="O7BcQqgrIBvrcE47ppgs-4" edge="1">
          <mxGeometry relative="1" as="geometry" />
        </mxCell>
        <mxCell id="cc6fdQzZTqaJooS85zYE-11" value="&quot;아쉽지만 겹치는 번호가 &lt;br&gt;없습니다.&quot; 출력" style="rounded=0;whiteSpace=wrap;html=1;" parent="WIyWlLk6GJQsqaUBKTNV-1" vertex="1">
          <mxGeometry x="360" y="1005" width="150" height="60" as="geometry" />
        </mxCell>
        <mxCell id="rFgUZCGzAXO0L4Nov0C8-0" value="YES" style="text;html=1;align=center;verticalAlign=middle;whiteSpace=wrap;rounded=0;" parent="WIyWlLk6GJQsqaUBKTNV-1" vertex="1">
          <mxGeometry x="230" y="945" width="60" height="30" as="geometry" />
        </mxCell>
        <mxCell id="rFgUZCGzAXO0L4Nov0C8-1" value="NO" style="text;html=1;align=center;verticalAlign=middle;whiteSpace=wrap;rounded=0;" parent="WIyWlLk6GJQsqaUBKTNV-1" vertex="1">
          <mxGeometry x="354" y="945" width="60" height="30" as="geometry" />
        </mxCell>
      </root>
    </mxGraphModel>
  </diagram>
</mxfile>
